<mxfile host="app.diagrams.net" modified="2023-10-30T01:54:41.224Z" agent="Mozilla/5.0 (X11; Linux x86_64) AppleWebKit/537.36 (KHTML, like Gecko) Chrome/118.0.0.0 Safari/537.36" etag="-YfrT_5QISkIT0PerF-g" version="22.0.8" type="github">
  <diagram name="Page-1" id="0783ab3e-0a74-02c8-0abd-f7b4e66b4bec">
    <mxGraphModel dx="1436" dy="790" grid="1" gridSize="10" guides="1" tooltips="1" connect="1" arrows="1" fold="1" page="1" pageScale="1" pageWidth="850" pageHeight="1100" background="none" math="0" shadow="0">
      <root>
        <mxCell id="0" />
        <mxCell id="1" parent="0" />
        <mxCell id="1c1d494c118603dd-1" value="3.1 Use Case: User Registration and 3.2 Use Case: Device Connection" style="swimlane;html=1;childLayout=stackLayout;startSize=20;rounded=0;shadow=0;comic=0;labelBackgroundColor=none;strokeWidth=1;fontFamily=Verdana;fontSize=12;align=center;" parent="1" vertex="1">
          <mxGeometry x="40" y="20" width="1000" height="990" as="geometry" />
        </mxCell>
        <mxCell id="1c1d494c118603dd-2" value="Homeowner" style="swimlane;html=1;startSize=20;" parent="1c1d494c118603dd-1" vertex="1">
          <mxGeometry y="20" width="250" height="970" as="geometry" />
        </mxCell>
        <mxCell id="60571a20871a0731-4" value="" style="ellipse;whiteSpace=wrap;html=1;rounded=0;shadow=0;comic=0;labelBackgroundColor=none;strokeWidth=1;fillColor=#000000;fontFamily=Verdana;fontSize=12;align=center;" parent="1c1d494c118603dd-2" vertex="1">
          <mxGeometry x="105" y="40" width="40" height="40" as="geometry" />
        </mxCell>
        <mxCell id="Mcc5gPNpuRrfqJERpfyI-61" value="Sign up" style="rounded=1;whiteSpace=wrap;html=1;shadow=0;comic=0;labelBackgroundColor=none;strokeWidth=1;fontFamily=Verdana;fontSize=12;align=center;arcSize=50;" vertex="1" parent="1c1d494c118603dd-2">
          <mxGeometry x="75" y="140" width="100" height="30" as="geometry" />
        </mxCell>
        <mxCell id="Mcc5gPNpuRrfqJERpfyI-84" style="edgeStyle=orthogonalEdgeStyle;rounded=0;orthogonalLoop=1;jettySize=auto;html=1;" edge="1" parent="1c1d494c118603dd-2" source="Mcc5gPNpuRrfqJERpfyI-83">
          <mxGeometry relative="1" as="geometry">
            <mxPoint x="130" y="530" as="targetPoint" />
          </mxGeometry>
        </mxCell>
        <mxCell id="Mcc5gPNpuRrfqJERpfyI-83" value="Fill out form with device info" style="rounded=1;whiteSpace=wrap;html=1;shadow=0;comic=0;labelBackgroundColor=none;strokeWidth=1;fontFamily=Verdana;fontSize=12;align=center;arcSize=50;" vertex="1" parent="1c1d494c118603dd-2">
          <mxGeometry x="80" y="460" width="100" height="30" as="geometry" />
        </mxCell>
        <mxCell id="Mcc5gPNpuRrfqJERpfyI-85" value="Click the submit button" style="rounded=1;whiteSpace=wrap;html=1;shadow=0;comic=0;labelBackgroundColor=none;strokeWidth=1;fontFamily=Verdana;fontSize=12;align=center;arcSize=50;" vertex="1" parent="1c1d494c118603dd-2">
          <mxGeometry x="80" y="530" width="100" height="30" as="geometry" />
        </mxCell>
        <mxCell id="Mcc5gPNpuRrfqJERpfyI-91" value="Return Success Message" style="rounded=1;whiteSpace=wrap;html=1;shadow=0;comic=0;labelBackgroundColor=none;strokeWidth=1;fontFamily=Verdana;fontSize=12;align=center;arcSize=50;" vertex="1" parent="1c1d494c118603dd-2">
          <mxGeometry x="67.5" y="860" width="105" height="30" as="geometry" />
        </mxCell>
        <mxCell id="60571a20871a0731-5" value="" style="shape=mxgraph.bpmn.shape;html=1;verticalLabelPosition=bottom;labelBackgroundColor=#ffffff;verticalAlign=top;perimeter=ellipsePerimeter;outline=end;symbol=terminate;rounded=0;shadow=0;comic=0;strokeWidth=1;fontFamily=Verdana;fontSize=12;align=center;" parent="1c1d494c118603dd-2" vertex="1">
          <mxGeometry x="100" y="920" width="40" height="40" as="geometry" />
        </mxCell>
        <mxCell id="1c1d494c118603dd-45" style="edgeStyle=none;rounded=0;html=1;labelBackgroundColor=none;startArrow=none;startFill=0;startSize=5;endArrow=classicThin;endFill=1;endSize=5;jettySize=auto;orthogonalLoop=1;strokeWidth=1;fontFamily=Verdana;fontSize=12;exitX=0.5;exitY=1;exitDx=0;exitDy=0;" parent="1c1d494c118603dd-2" source="Mcc5gPNpuRrfqJERpfyI-91" target="60571a20871a0731-5" edge="1">
          <mxGeometry relative="1" as="geometry">
            <mxPoint x="620" y="840" as="sourcePoint" />
          </mxGeometry>
        </mxCell>
        <mxCell id="1c1d494c118603dd-3" value="User Interface" style="swimlane;html=1;startSize=20;" parent="1c1d494c118603dd-1" vertex="1">
          <mxGeometry x="250" y="20" width="250" height="970" as="geometry">
            <mxRectangle x="250" y="20" width="40" height="970" as="alternateBounds" />
          </mxGeometry>
        </mxCell>
        <mxCell id="60571a20871a0731-8" value="Signal registration service to add user" style="rounded=1;whiteSpace=wrap;html=1;shadow=0;comic=0;labelBackgroundColor=none;strokeWidth=1;fontFamily=Verdana;fontSize=12;align=center;arcSize=50;" parent="1c1d494c118603dd-3" vertex="1">
          <mxGeometry x="75" y="140" width="100" height="30" as="geometry" />
        </mxCell>
        <mxCell id="Mcc5gPNpuRrfqJERpfyI-86" value="Signal registration service to add device" style="rounded=1;whiteSpace=wrap;html=1;shadow=0;comic=0;labelBackgroundColor=none;strokeWidth=1;fontFamily=Verdana;fontSize=12;align=center;arcSize=50;" vertex="1" parent="1c1d494c118603dd-3">
          <mxGeometry x="75" y="570" width="105" height="30" as="geometry" />
        </mxCell>
        <mxCell id="1c1d494c118603dd-4" value="Registration Service" style="swimlane;html=1;startSize=20;" parent="1c1d494c118603dd-1" vertex="1">
          <mxGeometry x="500" y="20" width="250" height="970" as="geometry" />
        </mxCell>
        <mxCell id="Mcc5gPNpuRrfqJERpfyI-77" style="edgeStyle=orthogonalEdgeStyle;rounded=0;orthogonalLoop=1;jettySize=auto;html=1;entryX=0.073;entryY=0.539;entryDx=0;entryDy=0;entryPerimeter=0;" edge="1" parent="1c1d494c118603dd-4" source="Mcc5gPNpuRrfqJERpfyI-74" target="Mcc5gPNpuRrfqJERpfyI-78">
          <mxGeometry relative="1" as="geometry">
            <mxPoint x="30" y="400" as="targetPoint" />
            <Array as="points">
              <mxPoint x="30" y="220" />
              <mxPoint x="30" y="402" />
            </Array>
          </mxGeometry>
        </mxCell>
        <mxCell id="Mcc5gPNpuRrfqJERpfyI-103" value="user does not exist" style="edgeLabel;html=1;align=center;verticalAlign=middle;resizable=0;points=[];" vertex="1" connectable="0" parent="Mcc5gPNpuRrfqJERpfyI-77">
          <mxGeometry x="-0.2302" y="-4" relative="1" as="geometry">
            <mxPoint x="14" y="2" as="offset" />
          </mxGeometry>
        </mxCell>
        <mxCell id="Mcc5gPNpuRrfqJERpfyI-74" value="" style="html=1;whiteSpace=wrap;aspect=fixed;shape=isoRectangle;" vertex="1" parent="1c1d494c118603dd-4">
          <mxGeometry x="86.66" y="200" width="66.67" height="40" as="geometry" />
        </mxCell>
        <mxCell id="Mcc5gPNpuRrfqJERpfyI-82" style="edgeStyle=orthogonalEdgeStyle;rounded=0;orthogonalLoop=1;jettySize=auto;html=1;" edge="1" parent="1c1d494c118603dd-4" source="Mcc5gPNpuRrfqJERpfyI-78">
          <mxGeometry relative="1" as="geometry">
            <mxPoint x="-320" y="470" as="targetPoint" />
            <Array as="points">
              <mxPoint x="120" y="470" />
              <mxPoint x="-319" y="470" />
            </Array>
          </mxGeometry>
        </mxCell>
        <mxCell id="Mcc5gPNpuRrfqJERpfyI-78" value="" style="html=1;whiteSpace=wrap;aspect=fixed;shape=isoRectangle;" vertex="1" parent="1c1d494c118603dd-4">
          <mxGeometry x="86.66999999999996" y="380" width="66.67" height="40" as="geometry" />
        </mxCell>
        <mxCell id="Mcc5gPNpuRrfqJERpfyI-96" style="edgeStyle=orthogonalEdgeStyle;rounded=0;orthogonalLoop=1;jettySize=auto;html=1;" edge="1" parent="1c1d494c118603dd-4" source="Mcc5gPNpuRrfqJERpfyI-88" target="Mcc5gPNpuRrfqJERpfyI-93">
          <mxGeometry relative="1" as="geometry" />
        </mxCell>
        <mxCell id="Mcc5gPNpuRrfqJERpfyI-88" value="Authenticate User by querying" style="rounded=1;whiteSpace=wrap;html=1;shadow=0;comic=0;labelBackgroundColor=none;strokeWidth=1;fontFamily=Verdana;fontSize=12;align=center;arcSize=50;" vertex="1" parent="1c1d494c118603dd-4">
          <mxGeometry x="67.49000000000001" y="620" width="105" height="30" as="geometry" />
        </mxCell>
        <mxCell id="Mcc5gPNpuRrfqJERpfyI-97" style="edgeStyle=orthogonalEdgeStyle;rounded=0;orthogonalLoop=1;jettySize=auto;html=1;" edge="1" parent="1c1d494c118603dd-4" source="Mcc5gPNpuRrfqJERpfyI-93">
          <mxGeometry relative="1" as="geometry">
            <mxPoint x="320" y="690" as="targetPoint" />
          </mxGeometry>
        </mxCell>
        <mxCell id="Mcc5gPNpuRrfqJERpfyI-104" value="User Exists" style="edgeLabel;html=1;align=center;verticalAlign=middle;resizable=0;points=[];" vertex="1" connectable="0" parent="Mcc5gPNpuRrfqJERpfyI-97">
          <mxGeometry x="-0.31" relative="1" as="geometry">
            <mxPoint as="offset" />
          </mxGeometry>
        </mxCell>
        <mxCell id="Mcc5gPNpuRrfqJERpfyI-100" style="edgeStyle=orthogonalEdgeStyle;rounded=0;orthogonalLoop=1;jettySize=auto;html=1;" edge="1" parent="1c1d494c118603dd-4" source="Mcc5gPNpuRrfqJERpfyI-93">
          <mxGeometry relative="1" as="geometry">
            <mxPoint x="90" y="800" as="targetPoint" />
            <Array as="points">
              <mxPoint x="40" y="690" />
              <mxPoint x="40" y="800" />
            </Array>
          </mxGeometry>
        </mxCell>
        <mxCell id="Mcc5gPNpuRrfqJERpfyI-105" value="user does not exist" style="edgeLabel;html=1;align=center;verticalAlign=middle;resizable=0;points=[];" vertex="1" connectable="0" parent="Mcc5gPNpuRrfqJERpfyI-100">
          <mxGeometry x="0.2364" y="-4" relative="1" as="geometry">
            <mxPoint as="offset" />
          </mxGeometry>
        </mxCell>
        <mxCell id="Mcc5gPNpuRrfqJERpfyI-93" value="" style="html=1;whiteSpace=wrap;aspect=fixed;shape=isoRectangle;" vertex="1" parent="1c1d494c118603dd-4">
          <mxGeometry x="86.66999999999996" y="670" width="66.67" height="40" as="geometry" />
        </mxCell>
        <mxCell id="Mcc5gPNpuRrfqJERpfyI-94" value="" style="html=1;whiteSpace=wrap;aspect=fixed;shape=isoRectangle;" vertex="1" parent="1c1d494c118603dd-4">
          <mxGeometry x="91.65999999999997" y="780" width="66.67" height="40" as="geometry" />
        </mxCell>
        <mxCell id="1c1d494c118603dd-27" style="edgeStyle=orthogonalEdgeStyle;rounded=0;html=1;labelBackgroundColor=none;startArrow=none;startFill=0;startSize=5;endArrow=classicThin;endFill=1;endSize=5;jettySize=auto;orthogonalLoop=1;strokeWidth=1;fontFamily=Verdana;fontSize=12" parent="1c1d494c118603dd-1" source="60571a20871a0731-4" edge="1">
          <mxGeometry relative="1" as="geometry">
            <mxPoint x="125" y="160" as="targetPoint" />
          </mxGeometry>
        </mxCell>
        <mxCell id="Mcc5gPNpuRrfqJERpfyI-60" value="User Logged In" style="edgeLabel;html=1;align=center;verticalAlign=middle;resizable=0;points=[];" vertex="1" connectable="0" parent="1c1d494c118603dd-27">
          <mxGeometry x="0.029" y="1" relative="1" as="geometry">
            <mxPoint as="offset" />
          </mxGeometry>
        </mxCell>
        <mxCell id="Mcc5gPNpuRrfqJERpfyI-62" style="edgeStyle=orthogonalEdgeStyle;rounded=0;orthogonalLoop=1;jettySize=auto;html=1;entryX=0;entryY=0.5;entryDx=0;entryDy=0;" edge="1" parent="1c1d494c118603dd-1" source="Mcc5gPNpuRrfqJERpfyI-61" target="60571a20871a0731-8">
          <mxGeometry relative="1" as="geometry" />
        </mxCell>
        <mxCell id="Mcc5gPNpuRrfqJERpfyI-65" style="edgeStyle=orthogonalEdgeStyle;rounded=0;orthogonalLoop=1;jettySize=auto;html=1;" edge="1" parent="1c1d494c118603dd-1" source="60571a20871a0731-8">
          <mxGeometry relative="1" as="geometry">
            <mxPoint x="620" y="220" as="targetPoint" />
          </mxGeometry>
        </mxCell>
        <mxCell id="Mcc5gPNpuRrfqJERpfyI-87" style="edgeStyle=orthogonalEdgeStyle;rounded=0;orthogonalLoop=1;jettySize=auto;html=1;entryX=0;entryY=0.5;entryDx=0;entryDy=0;" edge="1" parent="1c1d494c118603dd-1" source="Mcc5gPNpuRrfqJERpfyI-85" target="Mcc5gPNpuRrfqJERpfyI-86">
          <mxGeometry relative="1" as="geometry">
            <mxPoint x="130" y="620" as="targetPoint" />
            <Array as="points">
              <mxPoint x="130" y="605" />
            </Array>
          </mxGeometry>
        </mxCell>
        <mxCell id="Mcc5gPNpuRrfqJERpfyI-95" style="edgeStyle=orthogonalEdgeStyle;rounded=0;orthogonalLoop=1;jettySize=auto;html=1;entryX=0.5;entryY=0;entryDx=0;entryDy=0;" edge="1" parent="1c1d494c118603dd-1" source="Mcc5gPNpuRrfqJERpfyI-86" target="Mcc5gPNpuRrfqJERpfyI-88">
          <mxGeometry relative="1" as="geometry">
            <mxPoint x="620" y="605" as="targetPoint" />
          </mxGeometry>
        </mxCell>
        <mxCell id="Mcc5gPNpuRrfqJERpfyI-101" style="edgeStyle=orthogonalEdgeStyle;rounded=0;orthogonalLoop=1;jettySize=auto;html=1;entryX=0.5;entryY=0;entryDx=0;entryDy=0;" edge="1" parent="1c1d494c118603dd-1" source="Mcc5gPNpuRrfqJERpfyI-94" target="Mcc5gPNpuRrfqJERpfyI-91">
          <mxGeometry relative="1" as="geometry">
            <mxPoint x="624.9949999999999" y="870" as="targetPoint" />
            <Array as="points">
              <mxPoint x="625" y="850" />
              <mxPoint x="120" y="850" />
            </Array>
          </mxGeometry>
        </mxCell>
        <mxCell id="Mcc5gPNpuRrfqJERpfyI-30" value="User Database" style="swimlane;html=1;startSize=20;" vertex="1" parent="1">
          <mxGeometry x="790" y="40" width="250" height="970" as="geometry" />
        </mxCell>
        <mxCell id="Mcc5gPNpuRrfqJERpfyI-80" style="edgeStyle=orthogonalEdgeStyle;rounded=0;orthogonalLoop=1;jettySize=auto;html=1;" edge="1" parent="Mcc5gPNpuRrfqJERpfyI-30" source="Mcc5gPNpuRrfqJERpfyI-71">
          <mxGeometry relative="1" as="geometry">
            <mxPoint x="135" y="340" as="targetPoint" />
          </mxGeometry>
        </mxCell>
        <mxCell id="Mcc5gPNpuRrfqJERpfyI-71" value="Create a new user record" style="rounded=1;whiteSpace=wrap;html=1;shadow=0;comic=0;labelBackgroundColor=none;strokeWidth=1;fontFamily=Verdana;fontSize=12;align=center;arcSize=50;" vertex="1" parent="Mcc5gPNpuRrfqJERpfyI-30">
          <mxGeometry x="85" y="250" width="100" height="30" as="geometry" />
        </mxCell>
        <mxCell id="Mcc5gPNpuRrfqJERpfyI-79" value="Return Success Message" style="rounded=1;whiteSpace=wrap;html=1;shadow=0;comic=0;labelBackgroundColor=none;strokeWidth=1;fontFamily=Verdana;fontSize=12;align=center;arcSize=50;" vertex="1" parent="Mcc5gPNpuRrfqJERpfyI-30">
          <mxGeometry x="85" y="340" width="100" height="30" as="geometry" />
        </mxCell>
        <mxCell id="Mcc5gPNpuRrfqJERpfyI-98" style="edgeStyle=orthogonalEdgeStyle;rounded=0;orthogonalLoop=1;jettySize=auto;html=1;entryX=0.5;entryY=0;entryDx=0;entryDy=0;" edge="1" parent="Mcc5gPNpuRrfqJERpfyI-30" source="Mcc5gPNpuRrfqJERpfyI-89" target="Mcc5gPNpuRrfqJERpfyI-90">
          <mxGeometry relative="1" as="geometry" />
        </mxCell>
        <mxCell id="Mcc5gPNpuRrfqJERpfyI-89" value="Create a new entry for device" style="rounded=1;whiteSpace=wrap;html=1;shadow=0;comic=0;labelBackgroundColor=none;strokeWidth=1;fontFamily=Verdana;fontSize=12;align=center;arcSize=50;" vertex="1" parent="Mcc5gPNpuRrfqJERpfyI-30">
          <mxGeometry x="72.5" y="680" width="105" height="30" as="geometry" />
        </mxCell>
        <mxCell id="Mcc5gPNpuRrfqJERpfyI-99" style="edgeStyle=orthogonalEdgeStyle;rounded=0;orthogonalLoop=1;jettySize=auto;html=1;" edge="1" parent="Mcc5gPNpuRrfqJERpfyI-30" source="Mcc5gPNpuRrfqJERpfyI-90">
          <mxGeometry relative="1" as="geometry">
            <mxPoint x="-90" y="800" as="targetPoint" />
            <Array as="points">
              <mxPoint x="125" y="800" />
            </Array>
          </mxGeometry>
        </mxCell>
        <mxCell id="Mcc5gPNpuRrfqJERpfyI-90" value="Return Success Message" style="rounded=1;whiteSpace=wrap;html=1;shadow=0;comic=0;labelBackgroundColor=none;strokeWidth=1;fontFamily=Verdana;fontSize=12;align=center;arcSize=50;" vertex="1" parent="Mcc5gPNpuRrfqJERpfyI-30">
          <mxGeometry x="72.5" y="750" width="105" height="30" as="geometry" />
        </mxCell>
        <mxCell id="Mcc5gPNpuRrfqJERpfyI-76" style="edgeStyle=orthogonalEdgeStyle;rounded=0;orthogonalLoop=1;jettySize=auto;html=1;entryX=0;entryY=0.5;entryDx=0;entryDy=0;" edge="1" parent="1" source="Mcc5gPNpuRrfqJERpfyI-74" target="Mcc5gPNpuRrfqJERpfyI-71">
          <mxGeometry relative="1" as="geometry">
            <mxPoint x="659.9949999999999" y="320" as="targetPoint" />
            <Array as="points">
              <mxPoint x="660" y="305" />
            </Array>
          </mxGeometry>
        </mxCell>
        <mxCell id="Mcc5gPNpuRrfqJERpfyI-102" value="user exists" style="edgeLabel;html=1;align=center;verticalAlign=middle;resizable=0;points=[];" vertex="1" connectable="0" parent="Mcc5gPNpuRrfqJERpfyI-76">
          <mxGeometry x="-0.4749" y="3" relative="1" as="geometry">
            <mxPoint as="offset" />
          </mxGeometry>
        </mxCell>
        <mxCell id="Mcc5gPNpuRrfqJERpfyI-81" style="edgeStyle=orthogonalEdgeStyle;rounded=0;orthogonalLoop=1;jettySize=auto;html=1;entryX=1.007;entryY=0.584;entryDx=0;entryDy=0;entryPerimeter=0;" edge="1" parent="1" source="Mcc5gPNpuRrfqJERpfyI-79" target="Mcc5gPNpuRrfqJERpfyI-78">
          <mxGeometry relative="1" as="geometry">
            <mxPoint x="925" y="450" as="targetPoint" />
            <Array as="points">
              <mxPoint x="920" y="443" />
            </Array>
          </mxGeometry>
        </mxCell>
      </root>
    </mxGraphModel>
  </diagram>
</mxfile>
